<svg xmlns="http://www.w3.org/2000/svg" viewBox="0 0 465.85 512"><defs><style>.cls-1{fill:#e2de00;}</style></defs><title>Artifact_Database_kelt</title><g id="Layer_2" data-name="Layer 2"><g id="Layer_1-2" data-name="Layer 1"><path class="cls-1" d="M458.35,298.17a7.5,7.5,0,0,0,7.5-7.5V207.05a17.61,17.61,0,0,0-17.6-17.6H448V17.5A17.52,17.52,0,0,0,430.49,0H155.26a7.5,7.5,0,0,0,0,15h70.17V120.7H60.6V15h62a7.5,7.5,0,0,0,0-15H35.36a17.52,17.52,0,0,0-17.5,17.5V95.67a7.5,7.5,0,0,0,15,0V17.5a2.5,2.5,0,0,1,2.5-2.5H45.6V172.86a7.5,7.5,0,0,0,7.5,7.5H412.75a7.5,7.5,0,0,0,7.5-7.5V15h10.24a2.5,2.5,0,0,1,2.5,2.5v172H318.17a17.44,17.44,0,0,0-10.1,3.21,17.44,17.44,0,0,0-10.1-3.21H167.89a17.44,17.44,0,0,0-10.1,3.21,17.5,17.5,0,0,0-10.11-3.21H32.86V128.33a7.5,7.5,0,0,0-15,0v61.12H17.6A17.61,17.61,0,0,0,0,207.05V471.37a17.61,17.61,0,0,0,11.13,16.35V504.5a7.5,7.5,0,0,0,7.5,7.5H46.91a7.5,7.5,0,0,0,7.5-7.5V489h56.47V504.5a7.5,7.5,0,0,0,7.5,7.5h28.28a7.5,7.5,0,0,0,7.5-7.5V487.72a17.66,17.66,0,0,0,3.63-2,17.49,17.49,0,0,0,10.1,3.21H298a17.51,17.51,0,0,0,10.1-3.21,17.4,17.4,0,0,0,3.63,2V504.5a7.5,7.5,0,0,0,7.5,7.5h28.28a7.5,7.5,0,0,0,7.5-7.5V489h56.46V504.5a7.5,7.5,0,0,0,7.5,7.5h28.29a7.5,7.5,0,0,0,7.5-7.5V487.72a17.61,17.61,0,0,0,11.12-16.35v-148a7.5,7.5,0,0,0-15,0v148a2.6,2.6,0,0,1-2.6,2.6H434V229.84a7.5,7.5,0,0,0-7.5-7.5H339.94a7.5,7.5,0,0,0-7.5,7.5V474H318.17a2.6,2.6,0,0,1-2.6-2.6V207.05a2.59,2.59,0,0,1,2.6-2.6H448.25a2.6,2.6,0,0,1,2.6,2.6v83.62A7.5,7.5,0,0,0,458.35,298.17ZM60.6,135.7H225.43v29.66H60.6Zm179.83,29.66V135.7H405.25v29.66ZM405.25,120.7H240.43V15H405.25V120.7ZM15,207.05a2.6,2.6,0,0,1,2.6-2.6H147.68a2.6,2.6,0,0,1,2.61,2.6V471.37a2.61,2.61,0,0,1-2.61,2.6H133.41V229.84a7.5,7.5,0,0,0-7.5-7.5H39.37a7.5,7.5,0,0,0-7.5,7.5V474H17.6a2.61,2.61,0,0,1-2.6-2.6ZM72,474V237.34h46.45V474Zm-25.09,0V237.34H57V474Zm-7.46,23H26.13v-8H39.41Zm86.47,0v-8h13.28v8Zm71.27-23V237.34H268.7V474Zm103.42-2.6A2.61,2.61,0,0,1,298,474H283.7V229.84a7.5,7.5,0,0,0-7.5-7.5H189.65a7.5,7.5,0,0,0-7.5,7.5V474H167.88a2.61,2.61,0,0,1-2.6-2.6V207.05a2.6,2.6,0,0,1,2.6-2.6H298a2.6,2.6,0,0,1,2.6,2.6ZM340,497H326.7v-8H340Zm86.46,0v-8h13.28v8ZM419,474H408.89V237.34H419ZM347.44,237.34h46.45V474H347.44Z"/><path class="cls-1" d="M232.93,254.2a7.5,7.5,0,0,0-7.5,7.5V308a7.5,7.5,0,0,0,15,0V261.7A7.5,7.5,0,0,0,232.93,254.2Z"/><path class="cls-1" d="M232.93,325.58a7.5,7.5,0,0,0-7.5,7.5v.1a7.5,7.5,0,0,0,15,0v-.1A7.5,7.5,0,0,0,232.93,325.58Z"/><path class="cls-1" d="M232.93,344.33a7.5,7.5,0,0,0-7.5,7.5v.1a7.5,7.5,0,0,0,15,0v-.1A7.5,7.5,0,0,0,232.93,344.33Z"/><path class="cls-1" d="M366.37,43.11h.17a7.5,7.5,0,0,0,.07-15h-.18a7.5,7.5,0,0,0-.06,15Z"/><path class="cls-1" d="M385.12,43.11h.17a7.5,7.5,0,0,0,.07-15h-.18a7.5,7.5,0,0,0-.06,15Z"/></g></g></svg>