<svg xmlns="http://www.w3.org/2000/svg" xmlns:xlink="http://www.w3.org/1999/xlink" viewBox="0 0 287.47 479"><defs><style>.cls-1{fill:none;}.cls-2{fill:#fff;}.cls-3{clip-path:url(#clip-path);}</style><clipPath id="clip-path" transform="translate(-0.72)"><rect class="cls-1" width="289" height="479"/></clipPath></defs><title>Medal</title><g id="Layer_2" data-name="Layer 2"><g id="Layer_1-2" data-name="Layer 1"><path class="cls-2" d="M236.5,295.34a8,8,0,0,1-7.08-4.27c-1.26-2.38-2.58-4.7-4-6.95a8,8,0,1,1,13.48-8.54q2.49,3.93,4.68,8.06a8,8,0,0,1-7.07,11.7Z" transform="translate(-0.72)"/><g class="cls-3"><path class="cls-2" d="M114.13,401.17a16,16,0,0,1-9.39-3.11A15.71,15.71,0,0,1,99,380.21l8-24.68-21-15.24a16,16,0,0,1,9.38-28.89h25.94l8-24.67a16,16,0,0,1,30.34,0l8,24.67h25.94a16,16,0,0,1,9.4,28.89L182,355.53l8,24.68a16,16,0,0,1-24.57,17.85l-20.95-15.25-21,15.25a15.89,15.89,0,0,1-9.34,3.11Zm-18.81-73.8,21,15.25a15.91,15.91,0,0,1,5.8,17.85l-8,24.67,21-15.25a16,16,0,0,1,18.79,0l21,15.25-8.05-24.67a15.92,15.92,0,0,1,5.8-17.85l21-15.25H167.67a16,16,0,0,1-15.22-11l-8-24.68v-.09l-8,24.75a16,16,0,0,1-15.22,11.05Z" transform="translate(-0.72)"/><path class="cls-2" d="M210.66,207.72l31.66-8.37a8,8,0,0,0,5.94-7.72V111.79a8,8,0,0,0-8-8h-24V8a8,8,0,0,0-8-8H80.59a8,8,0,0,0-8,8V103.8H48.65a8,8,0,0,0-8,8v79.84a8,8,0,0,0,5.94,7.72l31.65,8.36a143.73,143.73,0,1,0,132.41,0ZM88.57,16H200.36V103.8H88.57ZM56.63,119.77H232.29v65.71l-46.22,12.21c-.41-.12-.8-.15-1.23-.26a146.21,146.21,0,0,0-80.75,0c-.41.11-.8.15-1.24.26L56.63,185.48ZM144.46,463.1A127.81,127.81,0,1,1,272.22,335.35,127.8,127.8,0,0,1,144.46,463.1Z" transform="translate(-0.72)"/></g><path class="cls-2" d="M253.24,309.54a8,8,0,1,0-15.53,3.68,96.06,96.06,0,1,1-27.36-47.33,8,8,0,0,0,11-11.59,111.43,111.43,0,1,0,31.89,55.27Z" transform="translate(-0.72)"/><path class="cls-2" d="M224.31,175.66V135.74a8,8,0,0,0-8-8H72.6a8,8,0,0,0-8,8v39.92a8,8,0,0,0,8,8H216.32a8,8,0,0,0,8-8Zm-16-8H80.59v-24H208.34Z" transform="translate(-0.72)"/></g></g></svg>