<svg xmlns="http://www.w3.org/2000/svg" viewBox="0 0 480.12 480.02"><defs><style>.cls-1{fill:#e2de00;}</style></defs><title>Communications_kelt</title><g id="Layer_2" data-name="Layer 2"><g id="Layer_1-2" data-name="Layer 1"><path class="cls-1" d="M276.33,168.72a39.52,39.52,0,0,0,3.73-16.7,40,40,0,0,0-80,0,39.37,39.37,0,0,0,3.73,16.7,52.35,52.35,0,0,0-43.73,51.57V296a8,8,0,0,0,8,8h24V408a8,8,0,0,0,8,8h80a8,8,0,0,0,8-8V304h24a8,8,0,0,0,8-8V220.29A52.35,52.35,0,0,0,276.33,168.72ZM232.06,400h-24V208h-16v80h-16V220.29A36.31,36.31,0,0,1,212.33,184h6.76a8,8,0,0,0,5.27-14,23.65,23.65,0,0,1-8.3-18,24,24,0,0,1,48,0,23.65,23.65,0,0,1-8.3,18A8,8,0,0,0,261,184h6.77a36.31,36.31,0,0,1,36.27,36.27V288h-16V208h-16V400h-24"/><path class="cls-1" d="M330.83,17.89A239.85,239.85,0,0,0,99.36,45.57l9.4,13c100.31-72.47,240.38-49.9,312.86,50.41A224.08,224.08,0,0,1,447.38,325l14.81,6.08C512.39,208.31,453.58,68.1,330.83,17.89Z"/><path class="cls-1" d="M348.19,436.24c-108.48,59.64-244.76,20.05-304.4-88.43a224.15,224.15,0,0,1-20-166.32L8.34,177.32c-34.53,128.08,41.32,259.9,169.4,294.42a239.8,239.8,0,0,0,178.19-21.49Z"/><path class="cls-1" d="M385.18,172.65A160,160,0,1,0,172.69,385.18l6.74-14.5a144,144,0,1,1,121.26,0l6.74,14.5A160,160,0,0,0,385.18,172.65Z"/><path class="cls-1" d="M438.66,354a27.32,27.32,0,0,0,.3-16.21A27.66,27.66,0,0,0,419.41,319a28.51,28.51,0,0,0-24.74,5,27.12,27.12,0,0,0-9.25,30,23.67,23.67,0,0,0-17.36,22.64v46.71a8,8,0,0,0,8,8h8V472a8,8,0,0,0,8,8h40a8,8,0,0,0,8-8v-40.7h8a8,8,0,0,0,8-8V376.61A23.69,23.69,0,0,0,438.66,354Zm1.4,61.37h-8a8,8,0,0,0-8,8V464h-24v-40.7a8,8,0,0,0-8-8h-8V376.61a7.8,7.8,0,0,1,8-7.56h8.11a8,8,0,0,0,4.69-14.48,11.06,11.06,0,0,1-.37-18,12.43,12.43,0,0,1,11-2.13,11.55,11.55,0,0,1,8.1,7.68,11.06,11.06,0,0,1-4.32,12.43,8,8,0,0,0,4.7,14.48h8.11a7.81,7.81,0,0,1,8,7.57v38.7Z"/><path class="cls-1" d="M70.66,36A27.32,27.32,0,0,0,71,19.74,27.66,27.66,0,0,0,51.41,1,28.51,28.51,0,0,0,26.67,6a27.12,27.12,0,0,0-9.25,30A23.65,23.65,0,0,0,.06,58.61V104a8,8,0,0,0,8,8h8v48a8,8,0,0,0,8,8h40a8,8,0,0,0,8-8V112h8a8,8,0,0,0,8-8V58.61A23.69,23.69,0,0,0,70.66,36ZM72.06,96h-8a8,8,0,0,0-8,8v48h-24V104a8,8,0,0,0-8-8h-8V58.61a7.8,7.8,0,0,1,8-7.56h8.11a8,8,0,0,0,4.69-14.48,11.06,11.06,0,0,1-.37-18,12.43,12.43,0,0,1,11-2.13,11.55,11.55,0,0,1,8.1,7.68,11.06,11.06,0,0,1-4.32,12.43A8,8,0,0,0,56,51.05h8.11a7.81,7.81,0,0,1,8,7.57Z"/><path class="cls-1" d="M412.06,170.68A10.67,10.67,0,1,0,401.39,160,10.67,10.67,0,0,0,412.06,170.68Z"/><path class="cls-1" d="M391.06,133.69A10.67,10.67,0,1,0,380.39,123,10.67,10.67,0,0,0,391.06,133.69Z"/><path class="cls-1" d="M82.56,360.22a10.67,10.67,0,1,0-10.67-10.67A10.67,10.67,0,0,0,82.56,360.22Z"/><path class="cls-1" d="M61.56,323.23a10.67,10.67,0,1,0-10.67-10.67A10.67,10.67,0,0,0,61.56,323.23Z"/></g></g></svg>