<svg xmlns="http://www.w3.org/2000/svg" viewBox="0 0 480 480"><defs><style>.cls-1{fill:#fff;}</style></defs><title>Fleet</title><g id="Layer_2" data-name="Layer 2"><g id="Layer_1-2" data-name="Layer 1"><path class="cls-1" d="M472,16H312a8,8,0,0,0-8,8V48H272V24A24,24,0,0,0,248,0H232a24,24,0,0,0-24,24V48H176V24a8,8,0,0,0-8-8H8a8,8,0,0,0-8,8V88a8,8,0,0,0,8,8H168a8,8,0,0,0,8-8V64h32v96h-4.1a40,40,0,0,0-39.73,44.59l3.2,27.41H128V144a8,8,0,0,0-8-8H8a8,8,0,0,0-8,8V336a8,8,0,0,0,8,8H120a8,8,0,0,0,8-8V248h41.18L182.4,362.75A24,24,0,0,0,206.26,384H216v32H168V384a8,8,0,0,0-8-8H32a8,8,0,0,0-8,8v80a8,8,0,0,0,8,8H160a8,8,0,0,0,8-8V432h48v24a24,24,0,0,0,48,0V432h48v32a8,8,0,0,0,8,8H448a8,8,0,0,0,8-8V384a8,8,0,0,0-8-8H320a8,8,0,0,0-8,8v32H264V384h9.74a24,24,0,0,0,23.86-21.25L310.82,248H352v88a8,8,0,0,0,8,8H472a8,8,0,0,0,8-8V144a8,8,0,0,0-8-8H360a8,8,0,0,0-8,8v88H312.66l3.2-27.41A40,40,0,0,0,276.1,160H272V64h32V88a8,8,0,0,0,8,8H472a8,8,0,0,0,8-8V24A8,8,0,0,0,472,16ZM160,48H144V32h16ZM64,48H48V32H64ZM80,32H96V48H80ZM64,64V80H48V64Zm16,0H96V80H80Zm32,0h16V80H112Zm0-16V32h16V48ZM32,32V48H16V32ZM16,64H32V80H16ZM144,80V64h16V80ZM72,232V216h40v16Zm-56,0V216H56v16Zm40,16v16H16V248Zm56-48H72V184h40Zm-56,0H16V184H56ZM16,280H56v16H16Zm56,0h40v16H72Zm40-16H72V248h40Zm0-96H72V152h40ZM56,152v16H16V152ZM16,312H56v16H16Zm56,16V312h40v16Zm80,88H136V392h16ZM88,432v24H72V432ZM72,416V392H88v24Zm32,16h16v24H104Zm0-16V392h16v24ZM56,392v24H40V392ZM40,432H56v24H40Zm96,24V432h16v24Zm192-24h16v24H328Zm64-16V392h16v24Zm16,16v24H392V432Zm-32-16H360V392h16Zm0,16v24H360V432Zm48,24V432h16v24Zm16-40H424V392h16Zm-96-24v24H328V392ZM186,184a24.1,24.1,0,0,1,17.92-8H232v16.8A40.13,40.13,0,0,0,200.8,224H182.51l-2.45-21.24A24.09,24.09,0,0,1,186,184Zm54,72a24,24,0,1,1,24-24A24,24,0,0,1,240,256ZM198.31,360.92,184.36,240H200.8A40.13,40.13,0,0,0,232,271.2V368H206.26A8,8,0,0,1,198.31,360.92ZM248,456a8,8,0,0,1-16,0V384h16Zm33.69-95.08a8,8,0,0,1-7.95,7.08H248V271.2A40.13,40.13,0,0,0,279.2,240h16.45ZM408,248v16H368V248Zm56,0v16H424V248Zm-40-16V216h40v16Zm-56,48h40v16H368Zm56,0h40v16H424Zm40-80H424V184h40Zm-56,0H368V184h40Zm-40,16h40v16H368Zm0,96h40v16H368Zm56,16V312h40v16Zm40-160H424V152h40Zm-56-16v16H368V152ZM294,184a24.1,24.1,0,0,1,5.92,18.73L297.49,224H279.2A40.13,40.13,0,0,0,248,192.8V176h28.1A24.1,24.1,0,0,1,294,184Zm-70-24V24a8,8,0,0,1,8-8h16a8,8,0,0,1,8,8V160ZM464,48H448V32h16Zm-96,0H352V32h16Zm16-16h16V48H384ZM368,64V80H352V64Zm16,0h16V80H384Zm32,0h16V80H416Zm0-16V32h16V48ZM336,32V48H320V32ZM320,64h16V80H320ZM448,80V64h16V80Z"/></g></g></svg>