<svg xmlns="http://www.w3.org/2000/svg" viewBox="0 0 514 514"><defs><style>.cls-1{fill:#e2de00;stroke:#e2de00;stroke-miterlimit:10;stroke-width:2px;}</style></defs><title>Influence_kelt</title><g id="Layer_2" data-name="Layer 2"><g id="Layer_1-2" data-name="Layer 1"><path class="cls-1" d="M333.63,333.11a7.49,7.49,0,0,0,10.58-.77,115.24,115.24,0,0,0,7.47-141,7.5,7.5,0,1,0-12.32,8.57,100.21,100.21,0,0,1-6.5,122.67A7.49,7.49,0,0,0,333.63,333.11Z"/><path class="cls-1" d="M320,344.75a7.5,7.5,0,0,0-10.33-2.43A100.22,100.22,0,0,1,180,192.84a47.74,47.74,0,0,0,84.68-35.79,99.09,99.09,0,0,1,53.72,20.74,7.5,7.5,0,0,0,9.2-11.85A114.16,114.16,0,0,0,257,141.75a115.25,115.25,0,1,0,60.54,213.32A7.49,7.49,0,0,0,320,344.75Zm-102.65-149A32.79,32.79,0,0,1,190.6,182,99.86,99.86,0,0,1,249.53,157a33.3,33.3,0,0,1,.57,6A32.81,32.81,0,0,1,217.33,195.79Z"/><path class="cls-1" d="M431.21,149.25a40,40,0,0,0-62.68-33A180,180,0,0,0,257,77.42C158,77.42,77.42,158,77.42,257S158,436.58,257,436.58a181.83,181.83,0,0,0,22.41-1.38,7.5,7.5,0,1,0-1.85-14.89A167.63,167.63,0,0,1,257,421.58c-90.75,0-164.58-73.83-164.58-164.58S166.25,92.42,257,92.42A164.94,164.94,0,0,1,357.91,127a40,40,0,0,0,47.84,59.55,164.68,164.68,0,0,1-81.86,220.89A7.5,7.5,0,0,0,327,421.77a7.38,7.38,0,0,0,3.05-.65,179.73,179.73,0,0,0,88.53-242.67A40,40,0,0,0,431.21,149.25Zm-65.08,0a25,25,0,1,1,25,25A25.07,25.07,0,0,1,366.13,149.25Z"/><path class="cls-1" d="M498.87,341.05A256.06,256.06,0,0,0,257,1a7.5,7.5,0,0,0,0,15A241.17,241.17,0,0,1,485,335.22a34,34,0,0,0-5.66-.49,33.38,33.38,0,0,0-22.95,57.65A241.14,241.14,0,0,1,134.7,464.71a52.05,52.05,0,0,0-75-69.26A241,241,0,0,1,96,77.72a33.38,33.38,0,0,0,52.27-35.81A239.13,239.13,0,0,1,197.4,23.43a7.5,7.5,0,0,0-3.7-14.54A255,255,0,0,0,141,28.78,33.39,33.39,0,0,0,86.34,66.21a256,256,0,0,0-37.5,339.84,52,52,0,0,0-7.07,50.68,7.5,7.5,0,1,0,13.95-5.5,37.06,37.06,0,1,1,19.15,20.16A7.5,7.5,0,1,0,68.65,485,52,52,0,0,0,125,476.37,256.11,256.11,0,0,0,469.36,400a33.09,33.09,0,0,0,10,1.53,33.39,33.39,0,0,0,19.51-60.5ZM116.13,32.7A18.41,18.41,0,1,1,97.72,51.11,18.43,18.43,0,0,1,116.13,32.7ZM479.36,386.55a18.41,18.41,0,1,1,18.41-18.41A18.43,18.43,0,0,1,479.36,386.55Z"/><path class="cls-1" d="M238.1,262.43A31.54,31.54,0,1,0,269.64,294,31.56,31.56,0,0,0,238.1,262.43Zm0,48.07A16.54,16.54,0,1,1,254.64,294,16.55,16.55,0,0,1,238.1,310.5Z"/><path class="cls-1" d="M287.13,195.7h.14a7.5,7.5,0,0,0,0-15h-.14a7.5,7.5,0,0,0,0,15Z"/><path class="cls-1" d="M298.39,266.12a7.5,7.5,0,0,0,0-15h-.11a7.5,7.5,0,0,0,0,15Z"/><path class="cls-1" d="M287.07,284.5h.14a7.5,7.5,0,0,0,0-15h-.15a7.5,7.5,0,0,0,0,15Z"/><path class="cls-1" d="M303.15,415.38h0a7.5,7.5,0,0,0,0,15h.14a7.5,7.5,0,0,0,0-15Z"/><path class="cls-1" d="M226.18,18.2h.11a7.5,7.5,0,1,0,0-15h-.11a7.5,7.5,0,0,0,0,15Z"/></g></g></svg>