<svg xmlns="http://www.w3.org/2000/svg" viewBox="0 0 405.22 485.1"><defs><style>.cls-1{fill:#e2de00;stroke:#e2de00;stroke-miterlimit:10;}</style></defs><title>News_kelt</title><g id="Layer_2" data-name="Layer 2"><g id="Layer_1-2" data-name="Layer 1"><path class="cls-1" d="M106.7,359.5a7.5,7.5,0,0,0,7.5-7.5V327a7.5,7.5,0,0,0-7.5-7.5H61a7.5,7.5,0,0,0-7.5,7.5v25a7.5,7.5,0,0,0,7.5,7.5Zm-38.18-25H99.2v10H68.52Z"/><path class="cls-1" d="M223.2,329.56v80.15a7.5,7.5,0,0,0,15,0V329.56a7.5,7.5,0,0,0-15,0Z"/><path class="cls-1" d="M389.34,447.86V445a17.14,17.14,0,0,0-14.11-16.83V369.93a7.5,7.5,0,0,0-15,0v57.93H208.83V310.72h151.4v26.55a7.5,7.5,0,0,0,15,0V310.72H378a17.14,17.14,0,0,0,17.12-17.12V283.22A17.14,17.14,0,0,0,378,266.1H223.14l-19-39.39a131.84,131.84,0,0,0,137.37-30.78c11-11,12.47-30,4.13-53.48C338.35,122,324,98.89,305.11,77.06l9.82-16.25c.5,0,1,0,1.48,0a26.34,26.34,0,1,0-26.33-26.34c0,.76,0,1.51.1,2.25l-15.8,9.56C252.6,27.47,229.55,13.16,209.12,5.88,185.59-2.5,166.55-1,155.53,10l0,0A130.76,130.76,0,0,0,118,119.2a7.5,7.5,0,0,0,7.43,6.57c.31,0,.62,0,.94,0a7.5,7.5,0,0,0,6.52-8.37,115.93,115.93,0,0,1,14-71.44c2.95,19.23,14,42.78,32.51,67.46a292.8,292.8,0,0,0,27.31,31.39A291.2,291.2,0,0,0,238,172.05h0l0,0c24.65,18.46,48.18,29.53,67.4,32.49A116.55,116.55,0,0,1,141.05,148a7.5,7.5,0,0,0-13.84,5.79A130.64,130.64,0,0,0,150.8,191,17.13,17.13,0,0,0,134.87,208V266.1H24.67A17.13,17.13,0,0,0,7.56,283.22V293.6a17.13,17.13,0,0,0,17.11,17.12h2.76v64.55a7.5,7.5,0,0,0,15,0V310.72h151.4V427.86H42.43V407.93a7.5,7.5,0,0,0-15,0v20.88A17.14,17.14,0,0,0,15.89,445v2.89a17.14,17.14,0,0,0-15.39,17v2.6A17.14,17.14,0,0,0,17.62,484.6h370a17.14,17.14,0,0,0,17.11-17.11v-2.6a17.11,17.11,0,0,0-15.38-17ZM324.49,131.45a79.11,79.11,0,0,1-10.93,13.67A77.22,77.22,0,0,1,258.39,168q-2.91-1.92-5.85-4l44.4-73.46a223,223,0,0,1,27.55,40.86ZM316.41,23.19a11.34,11.34,0,1,1-11.33,11.33,11.35,11.35,0,0,1,11.33-11.33Zm-129,75.7q-2.07-2.94-4-5.85a77.3,77.3,0,0,1,22.92-55.16A79.11,79.11,0,0,1,220,27,222.57,222.57,0,0,1,260.84,54.5ZM166.11,20.58C172.7,14,186.49,13.77,204,20a93.6,93.6,0,0,0-33,51.27c-11-22.9-13.33-42.15-4.82-50.66Zm30.35,90.36,99.35-60a26.31,26.31,0,0,0,4.78,4.65L240.5,155a284,284,0,0,1-23.22-20.82,284,284,0,0,1-20.82-23.22Zm119,79.55c-9.52,0-21.77-3.48-35.3-10a92.53,92.53,0,0,0,44-24.77,94.94,94.94,0,0,0,7.32-8.24c6.19,17.46,6,31.25-.62,37.84-3.49,3.48-8.77,5.16-15.38,5.16ZM149.87,259.31H166a7.5,7.5,0,0,0,0-15H149.87V208a2.12,2.12,0,0,1,2.11-2.12h14c.23,0,.45,0,.67,0a129.57,129.57,0,0,0,16.08,11,7.75,7.75,0,0,0,.35.91l23.38,48.35H149.87ZM22.56,293.6V283.22a2.11,2.11,0,0,1,2.11-2.12H378a2.12,2.12,0,0,1,2.12,2.12V293.6a2.12,2.12,0,0,1-2.12,2.12H24.67a2.11,2.11,0,0,1-2.11-2.12ZM30.89,445A2.12,2.12,0,0,1,33,442.86H372.22a2.12,2.12,0,0,1,2.12,2.11v2.8H30.89Zm358.84,22.52a2.13,2.13,0,0,1-2.12,2.11h-370a2.12,2.12,0,0,1-2.12-2.11v-2.6a2.12,2.12,0,0,1,2.12-2.12h370a2.12,2.12,0,0,1,2.11,2.12v2.6Z"/></g></g></svg>