<svg xmlns="http://www.w3.org/2000/svg" viewBox="0 0 406 513"><defs><style>.cls-1{fill:#fff;}.cls-1,.cls-2{stroke:#fff;stroke-miterlimit:10;}.cls-2{fill:none;}</style></defs><title>News</title><g id="Layer_2" data-name="Layer 2"><g id="Layer_1-2" data-name="Layer 1"><path class="cls-1" d="M106.7,387.39a7.49,7.49,0,0,0,7.5-7.5v-25a7.5,7.5,0,0,0-7.5-7.5H61a7.5,7.5,0,0,0-7.5,7.5v25a7.5,7.5,0,0,0,7.5,7.5Zm-38.18-25H99.2v10H68.52Z"/><path class="cls-1" d="M223.2,357.45V437.6a7.5,7.5,0,0,0,15,0V357.45a7.5,7.5,0,0,0-15,0Z"/><path class="cls-1" d="M389.34,475.75v-2.88A17.15,17.15,0,0,0,375.23,456v-58.2a7.5,7.5,0,1,0-15,0v57.92H208.83V338.61h151.4v26.56a7.5,7.5,0,1,0,15,0V338.61H378a17.14,17.14,0,0,0,17.12-17.11V311.11A17.14,17.14,0,0,0,378,294H223.14l-19-39.39a131.84,131.84,0,0,0,137.37-30.78c11-11,12.47-30,4.13-53.48C338.35,149.9,324,126.79,305.11,105l9.82-16.25c.5,0,1,0,1.48,0a26.33,26.33,0,1,0-26.33-26.33c0,.76,0,1.51.1,2.25l-15.8,9.55c-21.78-18.86-44.83-33.17-65.26-40.44-23.53-8.38-42.57-6.94-53.59,4.07l0,0A130.75,130.75,0,0,0,118,147.09a7.5,7.5,0,0,0,14.89-1.84,115.93,115.93,0,0,1,14-71.44c2.95,19.23,14,42.78,32.51,67.46a292.8,292.8,0,0,0,27.31,31.39A293.43,293.43,0,0,0,238,200h0c24.65,18.46,48.18,29.54,67.4,32.5a116.56,116.56,0,0,1-164.42-56.54,7.5,7.5,0,0,0-13.84,5.8,130.64,130.64,0,0,0,23.59,37.15,17.12,17.12,0,0,0-15.93,17.05V294H24.67A17.13,17.13,0,0,0,7.56,311.11V321.5a17.13,17.13,0,0,0,17.11,17.11h2.76v64.56a7.5,7.5,0,0,0,15,0V338.61h151.4V455.75H42.43V435.83a7.5,7.5,0,0,0-15,0v20.88a17.14,17.14,0,0,0-11.54,16.16v2.88a17.15,17.15,0,0,0-15.39,17v2.6A17.14,17.14,0,0,0,17.62,512.5h370a17.14,17.14,0,0,0,17.11-17.12v-2.6a17.13,17.13,0,0,0-15.38-17Zm-64.85-316.4A79.49,79.49,0,0,1,313.56,173a77.26,77.26,0,0,1-55.17,22.92q-2.91-1.92-5.85-4l44.4-73.46a223,223,0,0,1,27.55,40.86ZM316.41,51.09a11.33,11.33,0,1,1-11.33,11.33,11.35,11.35,0,0,1,11.33-11.33Zm-129,75.7q-2.07-2.94-4-5.85a77.27,77.27,0,0,1,22.92-55.16A79.17,79.17,0,0,1,220,54.84,223.16,223.16,0,0,1,260.84,82.4ZM166.11,48.48c6.59-6.59,20.38-6.81,37.84-.62a93.49,93.49,0,0,0-8.24,7.32,92.54,92.54,0,0,0-24.78,43.95c-11-22.9-13.33-42.14-4.82-50.65Zm30.35,90.36,99.35-60a26.37,26.37,0,0,0,4.78,4.66L240.5,182.87a282.12,282.12,0,0,1-23.22-20.82,283.84,283.84,0,0,1-20.82-23.21Zm119,79.54c-9.52,0-21.77-3.47-35.3-10a93.92,93.92,0,0,0,51.3-33c6.19,17.46,6,31.25-.62,37.83-3.49,3.49-8.77,5.16-15.38,5.16ZM149.87,287.21H166a7.5,7.5,0,0,0,0-15H149.87V235.94a2.12,2.12,0,0,1,2.11-2.12h14c.23,0,.45,0,.67,0a127.41,127.41,0,0,0,16.08,10.95,7.13,7.13,0,0,0,.35.91L206.48,294H149.87ZM22.56,321.5V311.11A2.1,2.1,0,0,1,24.67,309H378a2.11,2.11,0,0,1,2.12,2.11V321.5a2.12,2.12,0,0,1-2.12,2.11H24.67a2.11,2.11,0,0,1-2.11-2.11Zm8.33,151.37A2.12,2.12,0,0,1,33,470.75H372.22a2.12,2.12,0,0,1,2.12,2.12v2.79H30.89Zm358.84,22.51a2.13,2.13,0,0,1-2.12,2.12h-370a2.12,2.12,0,0,1-2.12-2.12v-2.6a2.13,2.13,0,0,1,2.12-2.12h370a2.13,2.13,0,0,1,2.11,2.12v2.6Z"/><rect class="cls-2" x="0.5" y="0.5" width="405" height="512"/></g></g></svg>