<svg xmlns="http://www.w3.org/2000/svg" viewBox="0 0 512 512.1"><defs><style>.cls-1{fill:#e2df08;}</style></defs><title>Personnel_kelt</title><g id="Layer_2" data-name="Layer 2"><g id="Layer_1-2" data-name="Layer 1"><path class="cls-1" d="M477.9,102.4A34.1,34.1,0,1,0,512,136.5,34.14,34.14,0,0,0,477.9,102.4Zm0,51.2A17.1,17.1,0,1,1,495,136.5,17.16,17.16,0,0,1,477.9,153.6Z"/><path class="cls-1" d="M34.1,384a34.1,34.1,0,1,0,34.1,34.1A34.14,34.14,0,0,0,34.1,384Zm0,51.2a17.1,17.1,0,1,1,17.1-17.1A17.16,17.16,0,0,1,34.1,435.2Z"/><path class="cls-1" d="M461.3,113.2,387.7,77.7a8.46,8.46,0,0,0-11.4,4,8.57,8.57,0,0,0,4,11.4l73.6,35.5a8.39,8.39,0,0,0,3.7.9,8.57,8.57,0,0,0,3.7-16.3Z"/><path class="cls-1" d="M384,443.7a34.15,34.15,0,1,0,34.1,34.2A34.14,34.14,0,0,0,384,443.7Zm0,51.2a17.1,17.1,0,1,1,17.1-17.1A17.16,17.16,0,0,1,384,494.9Z"/><path class="cls-1" d="M367.5,454.5,293.8,419a8.46,8.46,0,0,0-11.4,4,8.57,8.57,0,0,0,4,11.4L360,469.9a8.39,8.39,0,0,0,3.7.9,8.6,8.6,0,0,0,3.8-16.3Z"/><path class="cls-1" d="M256,230.4a34.1,34.1,0,1,0,34.1,34.1A34.14,34.14,0,0,0,256,230.4Zm0,51.2a17.1,17.1,0,1,1,17.1-17.1A17.16,17.16,0,0,1,256,281.6Z"/><path class="cls-1" d="M241,242.1,184.4,198a8.55,8.55,0,0,0-10.5,13.5l56.6,44.1a8.63,8.63,0,0,0,5.2,1.8,8.28,8.28,0,0,0,6.7-3.3A8.48,8.48,0,0,0,241,242.1Z"/><path class="cls-1" d="M409.6,221.9a93.9,93.9,0,1,0,93.9,93.9A94,94,0,0,0,409.6,221.9Zm0,170.6a76.8,76.8,0,1,1,76.8-76.8A76.82,76.82,0,0,1,409.6,392.5Z"/><path class="cls-1" d="M409.6,256a34.1,34.1,0,1,0,34.1,34.1A34.14,34.14,0,0,0,409.6,256Zm0,51.2a17.1,17.1,0,1,1,17.1-17.1A17.16,17.16,0,0,1,409.6,307.2Z"/><path class="cls-1" d="M434.4,341.3H384.9c-14.6,0-26.4,11.5-26.4,25.7v22.5a8.49,8.49,0,0,0,4.3,7.4,92.95,92.95,0,0,0,93.8,0,8.57,8.57,0,0,0,4.3-7.4V367C460.8,352.9,448.9,341.3,434.4,341.3Zm9.3,43.2a77.32,77.32,0,0,1-68.3,0V367.1c0-4.8,4.2-8.7,9.4-8.7h49.5c5.2,0,9.4,3.9,9.4,8.7v17.4Z"/><path class="cls-1" d="M204.8,324.3a93.85,93.85,0,1,0,93.9,93.8A94,94,0,0,0,204.8,324.3Zm0,170.6a76.8,76.8,0,1,1,76.8-76.8A76.82,76.82,0,0,1,204.8,494.9Z"/><path class="cls-1" d="M204.8,358.4a34.1,34.1,0,1,0,34.1,34.1A34.14,34.14,0,0,0,204.8,358.4Zm0,51.2a17.1,17.1,0,1,1,17.1-17.1A17.16,17.16,0,0,1,204.8,409.6Z"/><path class="cls-1" d="M229.6,443.7H180c-14.6,0-26.4,11.5-26.4,25.7V492a8.49,8.49,0,0,0,4.3,7.4,92.95,92.95,0,0,0,93.8,0A8.57,8.57,0,0,0,256,492V469.5C256,455.3,244.1,443.7,229.6,443.7Zm9.3,43.2a77.32,77.32,0,0,1-68.3,0V469.5c0-4.8,4.2-8.7,9.4-8.7h49.5c5.2,0,9.4,3.9,9.4,8.7v17.4Z"/><path class="cls-1" d="M93.9,110.9a93.9,93.9,0,1,0,93.9,93.9C187.7,153,145.6,110.9,93.9,110.9Zm0,170.7a76.8,76.8,0,1,1,76.8-76.8A76.82,76.82,0,0,1,93.9,281.6Z"/><path class="cls-1" d="M93.9,145.1A34.1,34.1,0,1,0,128,179.2,34.14,34.14,0,0,0,93.9,145.1Zm0,51.2A17.1,17.1,0,1,1,111,179.2,17.16,17.16,0,0,1,93.9,196.3Z"/><path class="cls-1" d="M118.6,230.4H69.1c-14.6,0-26.4,11.5-26.4,25.7v22.5A8.49,8.49,0,0,0,47,286a92.95,92.95,0,0,0,93.8,0,8.57,8.57,0,0,0,4.3-7.4V256.1C145.1,241.9,133.2,230.4,118.6,230.4Zm9.4,43.1a77.32,77.32,0,0,1-68.3,0V256.1c0-4.8,4.2-8.7,9.4-8.7h49.5c5.2,0,9.4,3.9,9.4,8.7v17.4Z"/><path class="cls-1" d="M298.7,0a93.9,93.9,0,1,0,93.9,93.9C392.5,42.1,350.4,0,298.7,0Zm0,170.7a76.8,76.8,0,1,1,76.8-76.8A76.82,76.82,0,0,1,298.7,170.7Z"/><path class="cls-1" d="M298.7,34.1a34.1,34.1,0,1,0,34.1,34.1A34.14,34.14,0,0,0,298.7,34.1Zm0,51.2a17.1,17.1,0,1,1,17.1-17.1A17.16,17.16,0,0,1,298.7,85.3Z"/><path class="cls-1" d="M323.4,119.5H273.9c-14.6,0-26.4,11.5-26.4,25.7v22.5a8.49,8.49,0,0,0,4.3,7.4,92.95,92.95,0,0,0,93.8,0,8.57,8.57,0,0,0,4.3-7.4V145.2C349.9,131,338,119.5,323.4,119.5Zm9.4,43.1a77.32,77.32,0,0,1-68.3,0V145.2c0-4.8,4.2-8.7,9.4-8.7h49.5c5.2,0,9.4,3.9,9.4,8.7v17.4Z"/><path class="cls-1" d="M219.8,88.3a8.44,8.44,0,0,0-12-.9L148.7,138a8.55,8.55,0,0,0,5.6,15,8.23,8.23,0,0,0,5.5-2.1l59.1-50.6A8.44,8.44,0,0,0,219.8,88.3Z"/><path class="cls-1" d="M407.9,225.3,356.7,157a8.5,8.5,0,0,0-13.6,10.2l51.2,68.3a8.57,8.57,0,0,0,6.8,3.4,8.67,8.67,0,0,0,5.1-1.7A8.47,8.47,0,0,0,407.9,225.3Z"/><path class="cls-1" d="M337.9,344a8.48,8.48,0,0,0-11.9-1.7L278.2,378a8.48,8.48,0,0,0-1.7,11.9,8.57,8.57,0,0,0,6.8,3.4,8.67,8.67,0,0,0,5.1-1.7l47.7-35.7A8.5,8.5,0,0,0,337.9,344Z"/><path class="cls-1" d="M119.5,409.6H59.7a8.5,8.5,0,1,0,0,17h59.7a8.49,8.49,0,0,0,8.5-8.5A8.41,8.41,0,0,0,119.5,409.6Z"/><path class="cls-1" d="M93.9,0A34.15,34.15,0,1,0,128,34.2,34.16,34.16,0,0,0,93.9,0Zm0,51.2A17.1,17.1,0,1,1,111,34.1,17.16,17.16,0,0,1,93.9,51.2Z"/><path class="cls-1" d="M93.9,51.2a8.49,8.49,0,0,0-8.5,8.5v59.7a8.5,8.5,0,0,0,17,0V59.7A8.49,8.49,0,0,0,93.9,51.2Z"/></g></g></svg>