<?xml version="1.0" encoding="utf-8"?>
<!-- Generator: Adobe Illustrator 23.0.0, SVG Export Plug-In . SVG Version: 6.00 Build 0)  -->
<svg version="1.1" id="Capa_1" xmlns="http://www.w3.org/2000/svg" xmlns:xlink="http://www.w3.org/1999/xlink" x="0px" y="0px"
	 viewBox="0 0 512 512" style="enable-background:new 0 0 512 512;" xml:space="preserve">
<style type="text/css">
	.st0{fill:#FFFFFF;}
</style>
<g>
	<g>
		<path class="st0" d="M477.9,102.4c-18.8,0-34.1,15.3-34.1,34.1s15.3,34.1,34.1,34.1s34.1-15.3,34.1-34.1
			C512,117.7,496.7,102.4,477.9,102.4z M477.9,153.6c-9.4,0-17.1-7.7-17.1-17.1c0-9.4,7.7-17.1,17.1-17.1s17.1,7.7,17.1,17.1
			C494.9,145.9,487.3,153.6,477.9,153.6z"/>
	</g>
</g>
<g>
	<g>
		<path class="st0" d="M34.1,384C15.3,384,0,399.3,0,418.1s15.3,34.1,34.1,34.1c18.8,0,34.1-15.3,34.1-34.1S53,384,34.1,384z
			 M34.1,435.2c-9.4,0-17.1-7.7-17.1-17.1s7.7-17.1,17.1-17.1c9.4,0,17.1,7.7,17.1,17.1S43.5,435.2,34.1,435.2z"/>
	</g>
</g>
<g>
	<g>
		<path class="st0" d="M461.3,113.2l-73.6-35.5c-4.3-2.1-9.3-0.3-11.4,4c-2,4.2-0.3,9.3,4,11.4l73.6,35.5c1.2,0.6,2.5,0.9,3.7,0.9
			c3.2,0,6.2-1.8,7.7-4.8C467.3,120.3,465.6,115.2,461.3,113.2z"/>
	</g>
</g>
<g>
	<g>
		<path class="st0" d="M384,443.7c-18.8,0-34.1,15.3-34.1,34.1S365.2,512,384,512s34.1-15.3,34.1-34.1S402.8,443.7,384,443.7z
			 M384,494.9c-9.4,0-17.1-7.7-17.1-17.1s7.7-17.1,17.1-17.1s17.1,7.7,17.1,17.1S393.4,494.9,384,494.9z"/>
	</g>
</g>
<g>
	<g>
		<path class="st0" d="M367.5,454.5L293.8,419c-4.3-2.1-9.3-0.3-11.4,4c-2,4.2-0.3,9.3,4,11.4l73.6,35.5c1.2,0.6,2.5,0.9,3.7,0.9
			c3.2,0,6.2-1.8,7.7-4.8C373.5,461.7,371.7,456.6,367.5,454.5z"/>
	</g>
</g>
<g>
	<g>
		<path class="st0" d="M256,230.4c-18.8,0-34.1,15.3-34.1,34.1c0,18.8,15.3,34.1,34.1,34.1c18.8,0,34.1-15.3,34.1-34.1
			C290.1,245.7,274.8,230.4,256,230.4z M256,281.6c-9.4,0-17.1-7.7-17.1-17.1c0-9.4,7.7-17.1,17.1-17.1c9.4,0,17.1,7.7,17.1,17.1
			C273.1,273.9,265.4,281.6,256,281.6z"/>
	</g>
</g>
<g>
	<g>
		<path class="st0" d="M241,242.1l-56.6-44.1c-3.7-2.9-9.1-2.2-12,1.5c-2.9,3.7-2.2,9.1,1.5,12l56.6,44.1c1.6,1.2,3.4,1.8,5.2,1.8
			c2.5,0,5.1-1.1,6.7-3.3C245.4,250.4,244.7,245,241,242.1z"/>
	</g>
</g>
<g>
	<g>
		<path class="st0" d="M409.6,221.9c-51.8,0-93.9,42.1-93.9,93.9s42.1,93.9,93.9,93.9s93.9-42.1,93.9-93.9S461.4,221.9,409.6,221.9z
			 M409.6,392.5c-42.4,0-76.8-34.4-76.8-76.8s34.4-76.8,76.8-76.8s76.8,34.4,76.8,76.8S452,392.5,409.6,392.5z"/>
	</g>
</g>
<g>
	<g>
		<path class="st0" d="M409.6,256c-18.8,0-34.1,15.3-34.1,34.1c0,18.8,15.3,34.1,34.1,34.1c18.8,0,34.1-15.3,34.1-34.1
			S428.4,256,409.6,256z M409.6,307.2c-9.4,0-17.1-7.7-17.1-17.1c0-9.4,7.7-17.1,17.1-17.1c9.4,0,17.1,7.7,17.1,17.1
			C426.7,299.5,419,307.2,409.6,307.2z"/>
	</g>
</g>
<g>
	<g>
		<path class="st0" d="M434.4,341.3h-49.5c-14.6,0-26.4,11.5-26.4,25.7v22.5c0,3,1.6,5.9,4.3,7.4c14.3,8.3,30.5,12.7,46.9,12.7
			s32.6-4.4,46.9-12.7c2.6-1.5,4.3-4.3,4.3-7.4v-22.5C460.8,352.9,448.9,341.3,434.4,341.3z M443.7,384.5c-21.2,10.6-47,10.6-68.3,0
			v-17.4c0-4.8,4.2-8.7,9.4-8.7h49.5c5.2,0,9.4,3.9,9.4,8.7L443.7,384.5L443.7,384.5z"/>
	</g>
</g>
<g>
	<g>
		<path class="st0" d="M204.8,324.3c-51.8,0-93.9,42.1-93.9,93.9S153,512,204.8,512s93.9-42.1,93.9-93.9S256.6,324.3,204.8,324.3z
			 M204.8,494.9c-42.4,0-76.8-34.4-76.8-76.8s34.4-76.8,76.8-76.8s76.8,34.4,76.8,76.8S247.2,494.9,204.8,494.9z"/>
	</g>
</g>
<g>
	<g>
		<path class="st0" d="M204.8,358.4c-18.8,0-34.1,15.3-34.1,34.1c0,18.8,15.3,34.1,34.1,34.1s34.1-15.3,34.1-34.1
			C238.9,373.7,223.6,358.4,204.8,358.4z M204.8,409.6c-9.4,0-17.1-7.7-17.1-17.1c0-9.4,7.7-17.1,17.1-17.1
			c9.4,0,17.1,7.7,17.1,17.1S214.2,409.6,204.8,409.6z"/>
	</g>
</g>
<g>
	<g>
		<path class="st0" d="M229.6,443.7H180c-14.6,0-26.4,11.5-26.4,25.7V492c0,3,1.6,5.9,4.3,7.4c14.3,8.3,30.5,12.7,46.9,12.7
			s32.6-4.4,46.9-12.7c2.6-1.5,4.3-4.3,4.3-7.4v-22.5C256,455.3,244.1,443.7,229.6,443.7z M238.9,486.9c-21.2,10.6-47,10.6-68.3,0
			v-17.4c0-4.8,4.2-8.7,9.4-8.7h49.5c5.2,0,9.4,3.9,9.4,8.7L238.9,486.9L238.9,486.9z"/>
	</g>
</g>
<g>
	<g>
		<path class="st0" d="M93.9,110.9C42.1,110.9,0,153,0,204.8s42.1,93.9,93.9,93.9s93.9-42.1,93.9-93.9
			C187.7,153,145.6,110.9,93.9,110.9z M93.9,281.6c-42.4,0-76.8-34.4-76.8-76.8S51.5,128,93.9,128s76.8,34.4,76.8,76.8
			C170.7,247.2,136.2,281.6,93.9,281.6z"/>
	</g>
</g>
<g>
	<g>
		<path class="st0" d="M93.9,145.1c-18.8,0-34.1,15.3-34.1,34.1s15.3,34.1,34.1,34.1c18.8,0,34.1-15.3,34.1-34.1
			S112.7,145.1,93.9,145.1z M93.9,196.3c-9.4,0-17.1-7.7-17.1-17.1s7.7-17.1,17.1-17.1c9.4,0,17.1,7.7,17.1,17.1
			S103.3,196.3,93.9,196.3z"/>
	</g>
</g>
<g>
	<g>
		<path class="st0" d="M118.6,230.4H69.1c-14.6,0-26.4,11.5-26.4,25.7v22.5c0,3,1.6,5.9,4.3,7.4c14.3,8.3,30.5,12.7,46.9,12.7
			s32.6-4.4,46.9-12.7c2.6-1.5,4.3-4.3,4.3-7.4v-22.5C145.1,241.9,133.2,230.4,118.6,230.4z M128,273.5c-21.2,10.6-47,10.6-68.3,0
			v-17.4c0-4.8,4.2-8.7,9.4-8.7h49.5c5.2,0,9.4,3.9,9.4,8.7L128,273.5L128,273.5z"/>
	</g>
</g>
<g>
	<g>
		<path class="st0" d="M298.7,0c-51.8,0-93.9,42.1-93.9,93.9s42.1,93.9,93.9,93.9s93.9-42.1,93.9-93.9C392.5,42.1,350.4,0,298.7,0z
			 M298.7,170.7c-42.4,0-76.8-34.4-76.8-76.8s34.4-76.8,76.8-76.8s76.8,34.4,76.8,76.8C375.5,136.2,341,170.7,298.7,170.7z"/>
	</g>
</g>
<g>
	<g>
		<path class="st0" d="M298.7,34.1c-18.8,0-34.1,15.3-34.1,34.1s15.3,34.1,34.1,34.1s34.1-15.3,34.1-34.1S317.5,34.1,298.7,34.1z
			 M298.7,85.3c-9.4,0-17.1-7.7-17.1-17.1c0-9.4,7.7-17.1,17.1-17.1s17.1,7.7,17.1,17.1C315.7,77.7,308.1,85.3,298.7,85.3z"/>
	</g>
</g>
<g>
	<g>
		<path class="st0" d="M323.4,119.5h-49.5c-14.6,0-26.4,11.5-26.4,25.7v22.5c0,3,1.6,5.9,4.3,7.4c14.3,8.3,30.5,12.7,46.9,12.7
			s32.6-4.4,46.9-12.7c2.6-1.5,4.3-4.3,4.3-7.4v-22.5C349.9,131,338,119.5,323.4,119.5z M332.8,162.6c-21.2,10.6-47,10.6-68.3,0
			v-17.4c0-4.8,4.2-8.7,9.4-8.7h49.5c5.2,0,9.4,3.9,9.4,8.7L332.8,162.6L332.8,162.6z"/>
	</g>
</g>
<g>
	<g>
		<path class="st0" d="M219.8,88.3c-3.1-3.6-8.4-4-12-0.9L148.7,138c-3.6,3.1-4,8.4-0.9,12c1.7,2,4.1,3,6.5,3c2,0,3.9-0.7,5.5-2.1
			l59.1-50.6C222.5,97.3,222.9,91.9,219.8,88.3z"/>
	</g>
</g>
<g>
	<g>
		<path class="st0" d="M407.9,225.3L356.7,157c-2.8-3.8-8.2-4.5-11.9-1.7c-3.8,2.8-4.5,8.2-1.7,11.9l51.2,68.3
			c1.7,2.2,4.2,3.4,6.8,3.4c1.8,0,3.6-0.6,5.1-1.7C410,234.4,410.7,229.1,407.9,225.3z"/>
	</g>
</g>
<g>
	<g>
		<path class="st0" d="M337.9,344c-2.8-3.8-8.2-4.5-11.9-1.7L278.2,378c-3.8,2.8-4.5,8.2-1.7,11.9c1.7,2.2,4.2,3.4,6.8,3.4
			c1.8,0,3.6-0.6,5.1-1.7l47.7-35.7C339.9,353.1,340.7,347.7,337.9,344z"/>
	</g>
</g>
<g>
	<g>
		<path class="st0" d="M119.5,409.6H59.7c-4.7,0-8.5,3.8-8.5,8.5s3.8,8.5,8.5,8.5h59.7c4.7,0,8.5-3.8,8.5-8.5
			S124.2,409.6,119.5,409.6z"/>
	</g>
</g>
<g>
	<g>
		<path class="st0" d="M93.9,0C75,0,59.7,15.3,59.7,34.1C59.7,53,75,68.3,93.9,68.3c18.8,0,34.1-15.3,34.1-34.1
			C128,15.3,112.7,0,93.9,0z M93.9,51.2c-9.4,0-17.1-7.7-17.1-17.1c0-9.4,7.7-17.1,17.1-17.1c9.4,0,17.1,7.7,17.1,17.1
			C110.9,43.5,103.3,51.2,93.9,51.2z"/>
	</g>
</g>
<g>
	<g>
		<path class="st0" d="M93.9,51.2c-4.7,0-8.5,3.8-8.5,8.5v59.7c0,4.7,3.8,8.5,8.5,8.5s8.5-3.8,8.5-8.5V59.7
			C102.4,55,98.6,51.2,93.9,51.2z"/>
	</g>
</g>
</svg>
