<svg xmlns="http://www.w3.org/2000/svg" viewBox="0 0 360.8 403.2"><defs><style>.cls-1{fill:#e2de00;}</style></defs><title>Shiplog_kelt</title><g id="Layer_2" data-name="Layer 2"><g id="Layer_1-2" data-name="Layer 1"><path class="cls-1" d="M247.2,101.6c-.8-2.4-4-3.2-6.4-2.4L172,108.8a6.91,6.91,0,0,0-4.8,2.4L126.4,152l-28-4a9.08,9.08,0,0,0-6.4,2.4L53.6,188.8a7.73,7.73,0,0,0,0,11.2l29.6,29.6a7.73,7.73,0,0,0,11.2,0l12.8-12.8L132,241.6l-12.8,12.8a7.73,7.73,0,0,0,0,11.2l29.6,29.6a7.73,7.73,0,0,0,11.2,0l38.4-38.4a9.08,9.08,0,0,0,2.4-6.4l-4-28,40.8-40.8a6.91,6.91,0,0,0,2.4-4.8l9.6-68.8A9.08,9.08,0,0,0,247.2,101.6ZM97.6,180A18.88,18.88,0,0,0,92,192.8,19.11,19.11,0,0,0,96,204l-7.2,8L70.4,193.6,100,164l12,1.6Zm57.6,97.6-18.4-18.4L144,252a19.11,19.11,0,0,0,11.2,4c4.8,0,9.6-1.6,12.8-5.6L182.4,236l2.4,12ZM224.8,172l-68,68a2.43,2.43,0,0,1-3.2,0l-44-44a2,2,0,0,1,0-3.2l68-68,55.2-8Z"/><path class="cls-1" d="M203,146c-8.8-9.6-25.6-9.6-35.2,0s-9.6,25.6,0,36a25.11,25.11,0,0,0,35.2,0C212.6,172.4,212.6,156.4,203,146Zm-10.4,24c-3.2,3.2-9.6,3.2-12.8,0-4-4-4-9.6,0-12.8a9.08,9.08,0,0,1,6.4-2.4c2.4-.8,4,.8,6.4,2.4C196.6,161.2,196.6,166.8,192.6,170Z"/><path class="cls-1" d="M322.4,144h16.8a21.51,21.51,0,0,0,21.6-21.6V75.2a21.51,21.51,0,0,0-21.6-21.6H322.4a15.62,15.62,0,0,0-5.6.8V35.2c0-19.2-16-35.2-36-35.2H36A35.85,35.85,0,0,0,0,36V367.2a35.85,35.85,0,0,0,36,36H280.8a35.85,35.85,0,0,0,36-36V249.6c1.6.8,3.2.8,5.6.8h16.8a21.51,21.51,0,0,0,21.6-21.6V181.6A21.51,21.51,0,0,0,339.2,160H322.4a15.62,15.62,0,0,0-5.6.8V143.2C318.4,144,320,144,322.4,144Zm-5.6-68a5.47,5.47,0,0,1,5.6-5.6h16.8a5.47,5.47,0,0,1,5.6,5.6v47.2a5.47,5.47,0,0,1-5.6,5.6H322.4a5.47,5.47,0,0,1-5.6-5.6Zm-16-.8v292a19.81,19.81,0,0,1-20,20H36a19.81,19.81,0,0,1-20-20V36A19.81,19.81,0,0,1,36,16H280.8a19.81,19.81,0,0,1,20,20Zm21.6,101.6h16.8a5.47,5.47,0,0,1,5.6,5.6v47.2a5.47,5.47,0,0,1-5.6,5.6H322.4a5.47,5.47,0,0,1-5.6-5.6V182.4A5.47,5.47,0,0,1,322.4,176.8Z"/><path class="cls-1" d="M200.8,336h-100a8,8,0,0,0,0,16h100a8,8,0,0,0,0-16Z"/><rect class="cls-1" x="216.8" y="336" width="16" height="16" rx="2.98"/><rect class="cls-1" x="241.6" y="336" width="16" height="16" rx="2.98"/><rect class="cls-1" x="44" y="336" width="16" height="16" rx="2.98"/><rect class="cls-1" x="68.8" y="336" width="16" height="16" rx="2.98"/></g></g></svg>