<svg xmlns="http://www.w3.org/2000/svg" viewBox="0 0 490.67 490.67"><defs><style>.cls-1{fill:#fff;}</style></defs><title>Starmap</title><g id="Layer_2" data-name="Layer 2"><g id="Layer_1-2" data-name="Layer 1"><path class="cls-1" d="M53.33,234.67A10.67,10.67,0,1,0,64,245.33,10.66,10.66,0,0,0,53.33,234.67Z"/><path class="cls-1" d="M380.69,120.47A10.67,10.67,0,1,0,370,109.8,10.67,10.67,0,0,0,380.69,120.47Z"/><path class="cls-1" d="M245.33,64a10.67,10.67,0,1,0-10.66-10.67A10.67,10.67,0,0,0,245.33,64Z"/><path class="cls-1" d="M109.8,370a10.67,10.67,0,1,0,10.67,10.66A10.67,10.67,0,0,0,109.8,370Z"/><path class="cls-1" d="M245.33,85.33c-88.23,0-160,71.77-160,160s71.77,160,160,160,160-71.76,160-160S333.57,85.33,245.33,85.33Zm0,298.67c-76.46,0-138.66-62.21-138.66-138.67s62.2-138.66,138.66-138.66S384,168.88,384,245.33,321.79,384,245.33,384Z"/><path class="cls-1" d="M245.33,0C110.06,0,0,110.06,0,245.33S110.06,490.67,245.33,490.67,490.67,380.61,490.67,245.33,380.61,0,245.33,0Zm0,469.33c-123.52,0-224-100.48-224-224s100.48-224,224-224,224,100.48,224,224S368.85,469.33,245.33,469.33Z"/><path class="cls-1" d="M330.67,277.33a32,32,0,0,1-32-32,10.67,10.67,0,0,0-21.34,0,32,32,0,0,1-32,32,10.67,10.67,0,0,0,0,21.34,32,32,0,0,1,32,32,10.67,10.67,0,0,0,21.34,0,32,32,0,0,1,32-32,10.67,10.67,0,0,0,0-21.34ZM288,299a53.25,53.25,0,0,0-11-11,53.25,53.25,0,0,0,11-11,53.25,53.25,0,0,0,11,11A53,53,0,0,0,288,299Z"/><path class="cls-1" d="M380.69,370a10.67,10.67,0,1,0,10.67,10.66A10.66,10.66,0,0,0,380.69,370Z"/><path class="cls-1" d="M202.67,213.33H192V202.67a10.67,10.67,0,1,0-21.33,0v10.66H160a10.67,10.67,0,0,0,0,21.34h10.67v10.66a10.67,10.67,0,1,0,21.33,0V234.67h10.67a10.67,10.67,0,0,0,0-21.34Z"/><path class="cls-1" d="M451.34,242.29a8,8,0,0,0-11.31,0l-2.34,2.35-2.35-2.35A8,8,0,0,0,424,253.61l2.35,2.34L424,258.29a8,8,0,1,0,11.31,11.32l2.35-2.35,2.34,2.35a8,8,0,0,0,11.31-11.32L449,256l2.34-2.34A8,8,0,0,0,451.34,242.29Z"/><path class="cls-1" d="M285.75,162.24a8,8,0,0,0-11.31,0l-2.34,2.35-2.35-2.35a8,8,0,0,0-11.31,11.32l2.35,2.34-2.35,2.34a8,8,0,1,0,11.31,11.32l2.35-2.35,2.34,2.35a8,8,0,0,0,11.31-11.32l-2.34-2.34,2.34-2.34A8,8,0,0,0,285.75,162.24Z"/><path class="cls-1" d="M248.37,424.34a8,8,0,0,0-11.31,0l-2.34,2.35-2.35-2.35a8,8,0,0,0-11.31,11.32L223.4,438l-2.34,2.34a8,8,0,1,0,11.31,11.32l2.35-2.35,2.34,2.35a8,8,0,0,0,11.31-11.32L246,438l2.34-2.34A8,8,0,0,0,248.37,424.34Z"/><path class="cls-1" d="M120.37,98.1a8,8,0,0,0-11.31,0l-2.34,2.34-2.35-2.34a8,8,0,0,0-11.31,11.31l2.34,2.34-2.34,2.35a8,8,0,1,0,11.31,11.31l2.35-2.35,2.34,2.35a8,8,0,0,0,11.31-11.31L118,111.75l2.34-2.34A8,8,0,0,0,120.37,98.1Z"/></g></g></svg>