<svg xmlns="http://www.w3.org/2000/svg" viewBox="0 0 491.67 491.67"><defs><style>.cls-1{fill:#e2de00;stroke:#e2de00;stroke-miterlimit:10;}</style></defs><title>Starmap_kelt</title><g id="Layer_2" data-name="Layer 2"><g id="Layer_1-2" data-name="Layer 1"><path class="cls-1" d="M53.83,235.17A10.67,10.67,0,1,0,64.5,245.83,10.66,10.66,0,0,0,53.83,235.17Z"/><path class="cls-1" d="M381.19,121a10.67,10.67,0,1,0-10.66-10.67A10.67,10.67,0,0,0,381.19,121Z"/><path class="cls-1" d="M245.83,64.5a10.67,10.67,0,1,0-10.66-10.67A10.67,10.67,0,0,0,245.83,64.5Z"/><path class="cls-1" d="M110.3,370.53A10.67,10.67,0,1,0,121,381.19,10.67,10.67,0,0,0,110.3,370.53Z"/><path class="cls-1" d="M245.83,85.83c-88.23,0-160,71.77-160,160s71.77,160,160,160,160-71.76,160-160S334.07,85.83,245.83,85.83Zm0,298.67c-76.46,0-138.66-62.21-138.66-138.67s62.2-138.66,138.66-138.66S384.5,169.38,384.5,245.83,322.29,384.5,245.83,384.5Z"/><path class="cls-1" d="M245.83.5C110.56.5.5,110.56.5,245.83S110.56,491.17,245.83,491.17,491.17,381.11,491.17,245.83,381.11.5,245.83.5Zm0,469.33c-123.52,0-224-100.48-224-224s100.48-224,224-224,224,100.48,224,224S369.35,469.83,245.83,469.83Z"/><path class="cls-1" d="M331.17,277.83a32,32,0,0,1-32-32,10.67,10.67,0,0,0-21.34,0,32,32,0,0,1-32,32,10.67,10.67,0,0,0,0,21.34,32,32,0,0,1,32,32,10.67,10.67,0,0,0,21.34,0,32,32,0,0,1,32-32,10.67,10.67,0,0,0,0-21.34ZM288.5,299.49a53.25,53.25,0,0,0-11-11,53.25,53.25,0,0,0,11-11,53.25,53.25,0,0,0,11,11A53,53,0,0,0,288.5,299.49Z"/><path class="cls-1" d="M381.19,370.53a10.67,10.67,0,1,0,10.67,10.66A10.66,10.66,0,0,0,381.19,370.53Z"/><path class="cls-1" d="M203.17,213.83H192.5V203.17a10.67,10.67,0,1,0-21.33,0v10.66H160.5a10.67,10.67,0,0,0,0,21.34h10.67v10.66a10.67,10.67,0,1,0,21.33,0V235.17h10.67a10.67,10.67,0,0,0,0-21.34Z"/><path class="cls-1" d="M451.84,242.79a8,8,0,0,0-11.31,0l-2.34,2.35-2.35-2.35a8,8,0,0,0-11.31,11.32l2.35,2.34-2.35,2.34a8,8,0,1,0,11.31,11.32l2.35-2.35,2.34,2.35a8,8,0,0,0,11.31-11.32l-2.34-2.34,2.34-2.34A8,8,0,0,0,451.84,242.79Z"/><path class="cls-1" d="M286.25,162.74a8,8,0,0,0-11.31,0l-2.34,2.35-2.35-2.35a8,8,0,0,0-11.31,11.32l2.35,2.34-2.35,2.34a8,8,0,1,0,11.31,11.32l2.35-2.35,2.34,2.35a8,8,0,0,0,11.31-11.32l-2.34-2.34,2.34-2.34A8,8,0,0,0,286.25,162.74Z"/><path class="cls-1" d="M248.87,424.84a8,8,0,0,0-11.31,0l-2.34,2.35-2.35-2.35a8,8,0,0,0-11.31,11.32l2.34,2.34-2.34,2.34a8,8,0,1,0,11.31,11.32l2.35-2.35,2.34,2.35a8,8,0,0,0,11.31-11.32l-2.34-2.34,2.34-2.34A8,8,0,0,0,248.87,424.84Z"/><path class="cls-1" d="M120.87,98.6a8,8,0,0,0-11.31,0l-2.34,2.34-2.35-2.34a8,8,0,0,0-11.31,11.31l2.34,2.34-2.34,2.35a8,8,0,1,0,11.31,11.31l2.35-2.35,2.34,2.35a8,8,0,0,0,11.31-11.31l-2.34-2.35,2.34-2.34A8,8,0,0,0,120.87,98.6Z"/></g></g></svg>